<?xml version="1.0" encoding="utf-8"?>
<!-- Generator: Adobe Illustrator 22.0.1, SVG Export Plug-In . SVG Version: 6.00 Build 0)  -->
<svg version="1.1" id="Layer_1" xmlns="http://www.w3.org/2000/svg" xmlns:xlink="http://www.w3.org/1999/xlink" x="0px" y="0px"
	 viewBox="0 0 240 50" style="enable-background:new 0 0 240 50;" xml:space="preserve">
<style type="text/css">
	.st0{fill:#1A499D;}
	.st1{fill:#9887BF;}
	.st2{fill:#59BE84;}
</style>
<g>
	<g>
		<path class="st0" d="M70.4,33.5l2.7-1l9.1-22.1h1L92.7,33l1.7,0.5V34h-4c-1.2,0-2.1-0.3-2.8-0.8c-0.7-0.5-1.3-1.2-1.6-2l-1.7-4
			h-7.9l-2.2,5.3l2.5,1V34h-6.1V33.5z M76.6,26.3h7.3l-3.6-8.7L76.6,26.3z"/>
		<path class="st0" d="M95.7,18.4L94,17.9v-0.5h4.1c1.1,0,2.1,0.2,2.7,0.7c0.7,0.5,1.3,1.2,1.7,2.1l3.9,7.7l3.7-9l-2.5-1v-0.5h6.1
			v0.5l-2.7,1L105,34.3h-1L95.7,18.4z"/>
		<path class="st0" d="M118.2,40.3c-0.6-0.5-0.8-1.3-0.8-2.2c0-0.8,0.2-1.5,0.7-2c0.5-0.5,1.1-0.7,1.8-0.7c0.2,0,0.4,0,0.5,0
			c0.2,0,0.3,0,0.4,0l0.4,0.1v4.5c0.6-0.1,1.2-0.5,1.7-1.1c0.5-0.6,1-1.6,1.6-3.1l0.7-1.7l-8.6-15.9l-1.7-0.5v-0.5h4.1
			c1.1,0,2.1,0.2,2.7,0.7c0.7,0.5,1.3,1.2,1.7,2.1l4.1,7.7l3.5-9l-2.5-1v-0.5h6.1v0.5l-2.7,1l-6.6,17.1c-0.7,1.8-1.5,3.1-2.3,3.9
			c-0.8,0.8-1.7,1.2-2.7,1.2C119.6,41.1,118.8,40.8,118.2,40.3z"/>
		<path class="st0" d="M138.4,33.2c-1.1-0.8-1.6-1.9-1.6-3.2c0-0.9,0.2-1.7,0.6-2.6c0.2-0.4,0.4-0.8,0.6-1.1c0.9-0.2,1.9-0.4,3-0.6
			c2.4-0.4,4.5-0.6,6.3-0.7v-1c0-2.5-0.3-4.1-0.9-5.1c-0.6-0.9-1.5-1.4-2.8-1.4c-0.5,0-0.9,0.1-1.2,0.2l-0.5,0.2v5l-0.4,0.1
			c-0.4,0-0.7,0.1-0.9,0.1c-0.8,0-1.4-0.2-1.8-0.7c-0.5-0.5-0.7-1.1-0.7-1.8c0-1,0.5-1.9,1.5-2.6c1-0.7,2.6-1.1,4.6-1.1
			c1.7,0,3.2,0.3,4.5,0.9c1.2,0.6,2.2,1.4,2.9,2.5c0.7,1.1,1,2.3,1,3.7v9l2,0.5V34h-3c-1.3,0-2.4-0.4-3.1-1.2
			c-0.3-0.3-0.6-0.8-0.7-1.3c-0.3,0.6-0.7,1.1-1.1,1.5c-1,1-2.2,1.5-3.7,1.5C141,34.5,139.5,34,138.4,33.2z M146.5,32
			c0.2-0.3,0.5-0.8,0.8-1.3v-4.8c-1,0-2,0.1-2.9,0.2c-0.7,0.1-1.2,0.1-1.4,0.2c-0.1,0.2-0.2,0.6-0.3,1c-0.2,0.8-0.3,1.7-0.3,2.5
			c0,1.2,0.2,2.2,0.6,2.8c0.4,0.6,0.9,0.9,1.4,0.9C145.1,33.3,145.8,32.9,146.5,32z"/>
		<path class="st0" d="M158.9,33.5l2-0.5V18.4l-2-0.5v-0.5h3c1.3,0,2.3,0.4,3.1,1.3c0.3,0.3,0.5,0.7,0.7,1.2
			c0.3-0.6,0.7-1.1,1.1-1.5c1-1,2.2-1.5,3.7-1.5c1.2,0,2.3,0.3,3.3,0.8c1,0.5,1.8,1.2,2.3,2c0.6,0.8,0.8,1.7,0.8,2.7V33l2,0.5V34
			h-4.3c-2,0-3-1-3-3v-8.6c0-1.4-0.2-2.5-0.7-3.2c-0.5-0.7-1.1-1.1-1.7-1.1c-0.8,0-1.6,0.4-2.3,1.3c-0.3,0.4-0.5,0.8-0.7,1.3V33
			l2,0.5V34h-9.3V33.5z"/>
		<path class="st0" d="M188.1,33.7c-1.1-0.5-1.9-1.3-2.5-2.2c-0.6-0.9-0.9-2-0.9-3.2V18.2h-2.3v-0.8h2.3v-1.7c0-2,1-3,3-3h2.3v4.6
			h4.6v0.8h-4.6v10.1c0,2,0.2,3.4,0.6,4.2c0.4,0.8,1,1.1,1.9,1.1c0.8,0,1.5-0.4,2.1-1.2c0.6-0.8,0.9-1.8,0.9-3.2h0.8
			c0,1.6-0.4,2.9-1.2,3.8c-0.8,0.9-1.9,1.3-3.3,1.3C190.4,34.5,189.2,34.2,188.1,33.7z"/>
		<path class="st0" d="M200.5,33.5l2-0.5V18.4l-2-0.5v-0.5h3c1.3,0,2.3,0.4,3.1,1.3c0.3,0.3,0.5,0.7,0.7,1.2
			c0.3-0.5,0.7-0.9,1.2-1.3c1.1-0.9,2.3-1.3,3.7-1.3c1.2,0,2.1,0.3,2.6,0.8c0.6,0.5,0.9,1.3,0.9,2.3c0,0.8-0.2,1.4-0.7,1.8
			c-0.5,0.5-1.1,0.7-1.8,0.7c-0.3,0-0.6,0-0.9-0.1l-0.4-0.1V18c-1.1,0-2.2,0.4-3.1,1.3c-0.4,0.4-0.8,0.9-1.1,1.3V33l2,0.5V34h-9.3
			V33.5z"/>
		<path class="st0" d="M220.8,33.2c-1.1-0.8-1.6-1.9-1.6-3.2c0-0.9,0.2-1.7,0.6-2.6c0.2-0.4,0.4-0.8,0.6-1.1c0.9-0.2,1.9-0.4,3-0.6
			c2.4-0.4,4.5-0.6,6.3-0.7v-1c0-2.5-0.3-4.1-0.9-5.1c-0.6-0.9-1.5-1.4-2.8-1.4c-0.5,0-0.9,0.1-1.2,0.2l-0.5,0.2v5l-0.4,0.1
			c-0.4,0-0.7,0.1-0.9,0.1c-0.8,0-1.4-0.2-1.8-0.7c-0.5-0.5-0.7-1.1-0.7-1.8c0-1,0.5-1.9,1.5-2.6c1-0.7,2.6-1.1,4.6-1.1
			c1.7,0,3.2,0.3,4.5,0.9c1.2,0.6,2.2,1.4,2.9,2.5c0.7,1.1,1,2.3,1,3.7v9l2,0.5V34h-3c-1.3,0-2.4-0.4-3.1-1.2
			c-0.3-0.3-0.6-0.8-0.7-1.3c-0.3,0.6-0.7,1.1-1.1,1.5c-1,1-2.2,1.5-3.7,1.5C223.4,34.5,221.9,34,220.8,33.2z M228.9,32
			c0.2-0.3,0.5-0.8,0.8-1.3v-4.8c-1,0-2,0.1-2.9,0.2c-0.7,0.1-1.2,0.1-1.4,0.2c-0.1,0.2-0.2,0.6-0.3,1c-0.2,0.8-0.3,1.7-0.3,2.5
			c0,1.2,0.2,2.2,0.6,2.8c0.4,0.6,0.9,0.9,1.4,0.9C227.5,33.3,228.3,32.9,228.9,32z"/>
	</g>
	<g>
		<g>
			<path class="st1" d="M56.1,32.3l0.7-0.4l-0.7-0.4L32.7,18l-2.8,1.6l21.4,12.3L29.9,44.2l2.8,1.6L56.1,32.3z M3.7,31.5L3,31.9
				l0.7,0.4V31.5z"/>
		</g>
		<g>
			<path class="st1" d="M56.8,31.9l-0.7-0.4v0.8L56.8,31.9z M29.9,44.2L8.5,31.9l21.4-12.3L27.1,18L3.7,31.5L3,31.9l0.7,0.4
				l23.4,13.5L29.9,44.2z"/>
		</g>
	</g>
	<g>
		<g>
			<path class="st2" d="M56.1,25.4l0.7-0.4l-0.7-0.4L32.7,11.1l-2.8,1.6L51.3,25L29.9,37.3l2.8,1.6L56.1,25.4z M3.7,24.6L3,25
				l0.7,0.4V24.6z"/>
		</g>
		<g>
			<path class="st2" d="M56.8,25l-0.7-0.4v0.8L56.8,25z M29.9,37.3L8.5,25l21.4-12.3l-2.8-1.6L3.7,24.6L3,25l0.7,0.4l23.4,13.5
				L29.9,37.3z"/>
		</g>
	</g>
	<g>
		<g>
			<g>
				<path class="st0" d="M56.1,18.5l0.7-0.4l-0.7-0.4L32.7,4.2l-2.8,1.6l21.4,12.3L29.9,30.4l2.8,1.6L56.1,18.5z M3.7,17.7L3,18.1
					l0.7,0.4V17.7z"/>
			</g>
			<g>
				<path class="st0" d="M56.8,18.1l-0.7-0.4v0.8L56.8,18.1z M29.9,30.4L8.5,18.1L29.9,5.8l-2.8-1.6L3.7,17.7L3,18.1l0.7,0.4
					L27.1,32L29.9,30.4z"/>
			</g>
		</g>
	</g>
</g>
</svg>
