<?xml version="1.0" encoding="utf-8"?>
<!-- Generator: Adobe Illustrator 22.0.1, SVG Export Plug-In . SVG Version: 6.00 Build 0)  -->
<svg version="1.1" id="Layer_1" xmlns="http://www.w3.org/2000/svg" xmlns:xlink="http://www.w3.org/1999/xlink" x="0px" y="0px"
	 viewBox="0 0 16 18" style="enable-background:new 0 0 16 18;" xml:space="preserve">
<style type="text/css">
	.st0{fill:#CECECE;}
</style>
<g>
	<path class="st0" d="M14.4,9.2c-0.4,0.7-1,1.3-1.8,1.8c-0.7,0.4-1.5,0.6-2.4,0.6c-0.3,0-0.6,0-0.9-0.1l-0.7,0.7
		c-0.1,0.1-0.3,0.2-0.5,0.2h-1v1.1c0,0.2-0.1,0.3-0.2,0.5c-0.1,0.1-0.3,0.2-0.5,0.2H5.4v1.1c0,0.2-0.1,0.3-0.2,0.5
		C5.1,15.9,4.9,16,4.7,16H1.7c-0.2,0-0.3-0.1-0.5-0.2C1.1,15.7,1,15.5,1,15.3v-2.1c0-0.2,0.1-0.3,0.2-0.5l4.4-4.4
		c-0.2-0.5-0.2-1-0.2-1.5c0-0.9,0.2-1.7,0.6-2.4c0.4-0.7,1-1.3,1.8-1.7C8.5,2.2,9.3,2,10.2,2s1.7,0.2,2.4,0.6c0.7,0.4,1.3,1,1.8,1.7
		C14.8,5.1,15,5.9,15,6.8S14.8,8.5,14.4,9.2z M10.6,6.4c0.3,0.3,0.6,0.4,0.9,0.4s0.7-0.1,0.9-0.4c0.3-0.3,0.4-0.6,0.4-0.9
		s-0.1-0.7-0.4-0.9c-0.3-0.3-0.6-0.4-0.9-0.4s-0.7,0.1-0.9,0.4c-0.3,0.3-0.4,0.6-0.4,0.9S10.3,6.2,10.6,6.4z"/>
</g>
</svg>
