<?xml version="1.0" encoding="utf-8"?>
<!-- Generator: Adobe Illustrator 22.0.1, SVG Export Plug-In . SVG Version: 6.00 Build 0)  -->
<svg version="1.1" id="eab39aaf-964c-43a5-8393-bd3b53d495e1"
	 xmlns="http://www.w3.org/2000/svg" xmlns:xlink="http://www.w3.org/1999/xlink" x="0px" y="0px" viewBox="0 0 1074.5 840.7"
	 style="enable-background:new 0 0 1074.5 840.7;" xml:space="preserve">
<style type="text/css">
	.st0{opacity:0.1;fill:#AB87FF;enable-background:new    ;}
	.st1{fill:#F5C5CC;}
	.st2{fill:none;}
	.st3{fill:#CC929B;}
	.st4{fill:#AB87FF;}
	.st5{opacity:0.1;enable-background:new    ;}
	.st6{fill:#40414D;}
	.st7{fill:url(#SVGID_1_);}
	.st8{fill:#FDC2CC;}
	.st9{fill:#5F5D7E;}
	.st10{fill:#D39999;}
	.st11{fill:#C4C8E2;}
	.st12{fill:#F8BDC5;}
	.st13{fill:#585268;}
	.st14{opacity:0.1;}
	.st15{fill:#865A61;}
	.st16{fill:#4B4770;}
	.st17{fill:#D4DFEC;}
</style>
<g>
	<path class="st0" d="M339.3,29.7c29.2-26,75-31.3,116.8-29.3c131.1,6.5,249.4,69.8,351.8,141.4c37.1,25.9,73.5,53.8,97.6,89.5
		c49,72.6,34.4,173.3-33.6,233.1c-23.2,20.4-51.3,36-80.1,49.8c-51.3,24.6-106.6,44.3-164.8,50c-41.5,4-83.5,0.8-124.7-4.8
		C387,543.8,273.9,509.2,179.1,450.1c-41.6-25.9-80.8-58.2-97.9-100.1S75,254.9,117.4,230c17.6-10.3,38.6-14.9,59.1-19.3
		c30.3-6.4,61-12.7,88.3-25.8c28.2-13.5,61.6-39.5,56-69.3C314.9,83.7,310.1,55.7,339.3,29.7z"/>
	<ellipse class="st0" cx="460.9" cy="788.9" rx="133.1" ry="41.7"/>
	<polygon class="st1" points="734,360.2 738.8,617 749,618.2 745.2,359.2 	"/>
	<polygon class="st2" points="739.9,355.5 745.4,622.6 749,618.2 745.2,359.2 	"/>
	<polygon class="st1" points="709.1,355.4 714,612.1 724.2,613.3 720.3,354.4 	"/>
	<polygon class="st2" points="715,350.6 720.5,617.8 724.2,613.3 720.3,354.4 	"/>
	<polygon class="st3" points="715.2,342 715.7,622 726.2,621 722.2,336.5 	"/>
	<polygon class="st1" points="425.6,295.2 430,528 440.3,529 436.8,294.3 	"/>
	<polygon class="st3" points="431.5,290.9 436.6,533.1 440.3,529 436.8,294.3 	"/>
	<polygon class="st1" points="447.4,301.1 451.8,533.8 462.1,534.9 458.6,300.2 	"/>
	<polygon class="st3" points="453.3,296.8 458.4,539 462.1,534.9 458.6,300.2 	"/>
	<polygon class="st1" points="468.8,307.5 473.2,540.2 483.5,541.3 480,306.6 	"/>
	<polygon class="st3" points="474.7,303.2 479.8,545.4 483.5,541.3 480,306.6 	"/>
	<polygon class="st1" points="489.5,308.8 494.1,549.7 504.4,550.8 500.8,307.9 	"/>
	<polygon class="st3" points="495.5,304.3 500.7,555 504.4,550.8 500.8,307.9 	"/>
	<polygon class="st1" points="512.1,310.7 516.7,551.6 526.9,552.7 523.3,309.7 	"/>
	<polygon class="st3" points="518,306.2 523.2,556.9 526.9,552.7 523.3,309.7 	"/>
	<polygon class="st1" points="534.2,318.6 538.8,559.4 549,560.6 545.5,317.6 	"/>
	<polygon class="st3" points="540.1,314.1 545.4,564.8 549,560.6 545.5,317.6 	"/>
	<polygon class="st1" points="559.6,323.8 564.2,571.4 574.5,572.5 570.8,322.8 	"/>
	<polygon class="st3" points="565.5,319.1 570.8,576.8 574.5,572.5 570.8,322.8 	"/>
	<polygon class="st1" points="581.6,326.4 586.3,574 596.6,575.1 592.8,325.4 	"/>
	<polygon class="st3" points="587.5,321.8 592.9,579.5 596.6,575.1 592.8,325.4 	"/>
	<polygon class="st1" points="605,333 609.7,580.6 619.9,581.8 616.2,332 	"/>
	<polygon class="st3" points="610.9,328.4 616.2,586.1 619.9,581.8 616.2,332 	"/>
	<polygon class="st1" points="405.5,294.8 405,280.1 410.3,277.3 783.2,353.7 783.9,372.5 	"/>
	<polyline class="st3" points="410.3,277.3 784.6,353.7 784.2,360.7 405.8,279.7 	"/>
	<polygon class="st1" points="425.7,661.7 415.2,665.5 405.2,665.5 404.7,271 410.2,263.3 415.5,261.8 422.2,260.7 	"/>
	<polygon class="st3" points="425.7,661.7 415.2,665.5 414.5,271.7 415.5,261.8 422.2,260.7 	"/>
	<polygon class="st1" points="630.3,340.3 635,587.9 645.3,589.1 641.6,339.3 	"/>
	<polygon class="st3" points="636.3,335.7 641.6,593.4 645.3,589.1 641.6,339.3 	"/>
	<polygon class="st1" points="655.9,344.2 660.7,597.1 671,598.3 667.2,343.2 	"/>
	<polygon class="st2" points="661.8,339.5 667.3,602.7 671,598.3 667.2,343.2 	"/>
	<polygon class="st1" points="682.3,348.9 687.1,605.6 697.3,606.8 693.5,347.8 	"/>
	<polygon class="st3" points="688.2,344.1 693.7,611.3 697.3,606.8 693.5,347.8 	"/>
	<polygon class="st1" points="280.2,586 269.7,587 269.2,310.8 269.2,307 276.2,301.5 276.3,309.1 	"/>
	<polygon class="st1" points="317.2,570.5 306.7,571.5 306.2,299.8 306.2,291.5 313.2,286 313.4,297.1 	"/>
	<polygon class="st1" points="378.2,545.5 367.7,546.5 367.2,278.2 367.2,266.5 374.2,261 374.4,276.6 	"/>
	<polygon class="st1" points="404.7,535.5 394.2,536.5 393.7,274.8 393.7,256.5 400.7,251 401,276.4 	"/>
	<polygon class="st1" points="298.7,583 288.2,584 287.7,306 287.7,304 294.7,298.5 294.8,303.8 	"/>
	<polygon class="st1" points="352.7,558 342.2,559 341.7,286.2 341.7,279 348.7,273.5 348.8,283.8 	"/>
	<polygon class="st1" points="335.2,563 324.7,564 324.2,292.9 324.2,284 331.2,278.5 331.4,290.1 	"/>
	<path class="st4" d="M269,539.8l-2.5,5.3c0,0-6.5,9.8-5.8,24.8s-10.5,54.8-10.5,54.8s10.2,4.8,18,4.3s24.5,7.8,24.5,7.8l34.7,10.8
		l70.3,16.5c0,0,41.3,23,52.5,23c11.3,0,56,15.3,56,15.3s60.5,13.3,65.3,18.3s24.8,11.7,26.8,12s32.5,3.3,32.5,3.3
		s35.5,8.3,40.5-0.5c2.9-4.9,4.9-10.4,5.8-16c0,0,15.8,3.5,20-1.8s4.5-16.5,9.5-16s25.5,6.8,27.8,4.5s14.3-28.8,22.8-24.8
		s23.3,10.3,23.3,10.3l-8.5-86.5l-3.8-23.8c0,0-136.3,55.5-141,55.5S269,539.8,269,539.8z"/>
	<path class="st4" d="M767.3,464.1l-0.8,122L625,640.4l-358.5-95.3c0,0-24.2-34.3-1.8-66.3c0,0-29-40,7-66l0.9-0.2l136.1-32.8
		l60.5,11.1l267.5,48.9C736.7,439.8,763,449.6,767.3,464.1z"/>
	<path class="st5" d="M464.5,402.6c-6.8,3.5-55.8,16.3-65.5,24s-77.2,13.8-77.2,13.8l-7.5,1.5c0,0,0.5-5-29.3-19.5
		c-4.8-2.3-9-5.6-12.4-9.7l136.1-32.8l60.5,11.1C469.4,395.7,468.5,400.5,464.5,402.6z"/>
	<path class="st4" d="M258.7,354.4c0,0-2.5,48.5,27.3,63s29.3,19.5,29.3,19.5l7.5-1.5c0,0-26-29-24.3-34s-23.3-30.3-26.8-31.3
		S258.7,354.4,258.7,354.4z"/>
	<path class="st5" d="M259.3,355.1c0,0-2.5,48.5,27.3,63s29.3,19.5,29.3,19.5l7.5-1.5c0,0-26-29-24.3-34s-23.3-30.3-26.8-31.3
		S259.3,355.1,259.3,355.1z"/>
	<path class="st5" d="M266.3,375.6c0,0,24,36.3,28.3,37.5S272,376.1,266.3,375.6z"/>
	<path class="st4" d="M255.3,347.6c0,0,15.5-12.5,17.5-15s24-3.5,24.8-3.5s17.5-10.3,36.3-13.5s26.3-4.8,26.3-4.8s27.5-11.5,29-14
		s14.3-5.3,30,7s50.5,67.3,50.8,73.3s2.5,17-4.3,20.5s-55.8,16.3-65.5,24s-77.3,13.8-77.3,13.8l-25.5-27.8l-13.5-21.8l-22.5-23.8
		L255.3,347.6z"/>
	<path class="st5" d="M297.1,563.5c0,0-9.3,2-4,7.3S297.1,563.5,297.1,563.5z"/>
	<path class="st5" d="M329.7,574.2c0,0-10,12-8,15.3S329.7,574.2,329.7,574.2z"/>
	<path class="st5" d="M388.4,589.5c0,0-10,12-8,15.3S388.4,589.5,388.4,589.5z"/>
	<path class="st5" d="M459.7,609.5c0,0-10,12-8,15.3S459.7,609.5,459.7,609.5z"/>
	<path class="st5" d="M555.7,633.5c0,0-10,12-8,15.3S555.7,633.5,555.7,633.5z"/>
	<path class="st5" d="M358.4,577.5c0,0-10,12-8,15.3S358.4,577.5,358.4,577.5z"/>
	<path class="st5" d="M497.7,619.5c0,0-10,12-8,15.3S497.7,619.5,497.7,619.5z"/>
	<path class="st5" d="M527.1,628.8c0,0-10,12-8,15.3S527.1,628.8,527.1,628.8z"/>
	<path class="st5" d="M414.4,597.5c0,0-10,12-8,15.3S414.4,597.5,414.4,597.5z"/>
	<path class="st5" d="M666.4,670.2l10.6,48.9C677,719.1,677.1,684.8,666.4,670.2z"/>
	<path class="st5" d="M699.1,677.5l7.4,23.8C706.5,701.4,705.7,692.2,699.1,677.5z"/>
	<path class="st5" d="M734.3,705.8c0,0-15.8-57.7-19.2-61.7S724.7,702.2,734.3,705.8z"/>
	<path class="st5" d="M753.1,678.8c0,0-18.7-32.7-11.3-38.7S753.1,678.8,753.1,678.8z"/>
	<path class="st5" d="M264.7,478.9l362.3,81.3l139.3-40.7l-140.7,36.7C625.7,556.2,275.7,475.5,264.7,478.9z"/>
	<polygon class="st1" points="275.7,390.5 276.2,623.2 286.4,624.5 286.9,389.7 	"/>
	<polygon class="st3" points="281.7,386.2 282.7,628.5 286.4,624.5 286.9,389.7 	"/>
	<polygon class="st1" points="297.4,396.7 297.9,629.5 308.2,630.7 308.7,396 	"/>
	<polygon class="st3" points="303.4,392.5 304.4,634.7 308.2,630.7 308.7,396 	"/>
	<polygon class="st1" points="318.7,403.5 319.2,636.2 329.4,637.5 329.9,402.7 	"/>
	<polygon class="st3" points="324.7,399.2 325.7,641.5 329.4,637.5 329.9,402.7 	"/>
	<polygon class="st1" points="339.4,405.1 339.9,646.1 350.2,647.3 350.7,404.4 	"/>
	<polygon class="st3" points="345.4,400.7 346.4,651.5 350.2,647.3 350.7,404.4 	"/>
	<polygon class="st1" points="361.9,407.4 362.4,648.3 372.7,649.6 373.2,406.6 	"/>
	<polygon class="st3" points="367.9,403 368.9,653.7 372.7,649.6 373.2,406.6 	"/>
	<polygon class="st1" points="383.9,415.6 384.4,656.6 394.7,657.8 395.2,414.9 	"/>
	<polygon class="st3" points="389.9,411.2 390.9,662 394.7,657.8 395.2,414.9 	"/>
	<polygon class="st2" points="409.2,421.3 409.7,668.9 419.9,670.2 420.4,420.5 	"/>
	<polygon class="st3" points="415.2,416.7 416.2,674.5 419.9,670.2 420.4,420.5 	"/>
	<polygon class="st1" points="431.2,424.3 431.7,671.9 441.9,673.2 442.4,423.5 	"/>
	<polygon class="st3" points="437.2,419.7 438.2,677.5 441.9,673.2 442.4,423.5 	"/>
	<polygon class="st1" points="454.4,431.3 454.9,678.9 465.2,680.2 465.7,430.5 	"/>
	<polygon class="st3" points="460.4,426.7 461.4,684.5 465.2,680.2 465.7,430.5 	"/>
	<polygon class="st1" points="479.7,439 480.2,686.7 490.4,688 490.9,438.2 	"/>
	<polygon class="st3" points="485.7,434.5 486.7,692.2 490.4,688 490.9,438.2 	"/>
	<polygon class="st1" points="505.2,443.4 505.7,696.3 515.9,697.6 516.4,442.5 	"/>
	<polygon class="st3" points="511.2,438.7 512.2,702 515.9,697.6 516.4,442.5 	"/>
	<polygon class="st3" points="531.4,448.4 531.9,705.2 542.2,706.6 542.7,447.6 	"/>
	<polygon class="st2" points="537.4,443.7 538.4,711 542.2,706.6 542.7,447.6 	"/>
	<polygon class="st1" points="558.2,455.4 558.7,712.2 568.9,713.6 569.4,454.6 	"/>
	<polygon class="st3" points="564.2,450.7 565.2,718 568.9,713.6 569.4,454.6 	"/>
	<polygon class="st3" points="582.9,460.7 583.4,717.5 593.7,718.8 594.2,459.9 	"/>
	<polygon class="st2" points="588.9,456 589.9,723.2 593.7,718.8 594.2,459.9 	"/>
	<polygon class="st1" points="262.2,668.5 251.7,672.5 241.7,672.5 241.2,305.5 246.7,297.5 252,295.9 259.7,293.5 	"/>
	<polygon class="st3" points="262.2,668.5 251.7,672.5 251,306.3 252,295.9 259.7,293.5 	"/>
	<circle class="st6" cx="252.7" cy="672" r="12"/>
	<polygon class="st1" points="799.2,724.7 788.7,728.5 778.7,728.5 778.2,325 783.7,326.3 789,324.8 796.7,322.5 	"/>
	<polygon class="st3" points="799.2,724.7 788.7,728.5 788,334.7 789,324.8 796.7,322.5 	"/>
	<polygon class="st1" points="653.7,649 643.2,650 642.7,380.4 642.7,370 649.7,364.5 649.9,378.9 	"/>
	<polygon class="st1" points="690.7,633.5 680.2,634.5 679.7,369.9 679.7,354.5 686.7,349 687,367.3 	"/>
	<polygon class="st1" points="751.7,608.5 741.2,609.5 740.7,345.5 740.7,329.5 747.7,324 748,342.5 	"/>
	<polygon class="st1" points="767.2,319.5 767.7,599.5 778.2,598.5 774.2,314 	"/>
	<polygon class="st1" points="672.2,646 661.7,647 661.2,375.9 661.2,367 668.2,361.5 668.4,373.7 	"/>
	<polygon class="st1" points="708.7,626 698.2,627 697.7,363.1 697.7,347 704.7,341.5 705,360.2 	"/>
	<polygon class="st1" points="729,619.3 718.5,620.3 718,356.4 718,354.8 718,340.3 725,334.8 725.3,351.9 725.3,353.5 	"/>
	<polygon class="st1" points="632.7,647.2 777.7,585.5 787.7,587.8 788,610.8 635.4,669.8 	"/>
	<polyline class="st3" points="777.7,585.5 632.7,647.2 787.2,587.7 	"/>
	<polygon class="st1" points="257,614.5 622.7,725.5 622,743.5 255.7,630.5 	"/>
	<path class="st1" d="M638.7,788.5l-10.5,4h-10l-0.5-411l0,0v-2l0.8-1.1l4.7-6.9l5.3-1.6l7.7-2.4l0.1,14L638.7,788.5z"/>
	<polygon class="st3" points="638.7,788.5 628.2,792.5 627.5,380.3 628.5,369.9 636.2,367.5 	"/>
	<path class="st5" d="M636.2,367.5l0.1,14c-2.9,0.4-5.8,0.7-8.7,0.8c-7.2,0.3-9.8-0.8-9.8-0.8l0,0c0-0.1,0.3-1.3,0.8-3.1l4.7-6.9
		l5.3-1.6L636.2,367.5z"/>
	<path class="st5" d="M649.7,364.5l0.2,14.4c-2.6,0.6-5,1.1-7.2,1.5V370L649.7,364.5z"/>
	<path class="st5" d="M668.2,361.5l0.2,12.2c-2.5,0.8-4.9,1.5-7.2,2.2V367L668.2,361.5z"/>
	<path class="st5" d="M686.7,349l0.3,18.3c-2.5,0.9-4.9,1.8-7.2,2.6v-15.4L686.7,349z"/>
	<path class="st5" d="M704.7,341.5l0.3,18.7l-5.8,2.3l-1.5,0.6V347L704.7,341.5z"/>
	<path class="st5" d="M748,342.5l-7.2,3v-16l7-5.5L748,342.5z"/>
	<path class="st5" d="M725.3,351.9l-7.2,3v-14.5l7-5.5L725.3,351.9z"/>
	<path class="st3" d="M802.7,331.5c0,0-18.5,0-23.5-1.5s-15.5,4.5-80,30.5c-39,15.7-60.7,19.4-71.7,19.8c-7.2,0.3-9.8-0.8-9.8-0.8
		s13.2-60.4,55.1-71.7c4.7-1.3,9.3-2.8,13.8-4.6l0.8-0.3c3.5-1.4,7.1-2.5,10.8-3.4c13.5-3.1,23.1-9,47.4-9.2
		c15.1-0.3,29.8,4.6,41.8,13.9C795.7,310.7,802.9,319.8,802.7,331.5z"/>
	<path class="st1" d="M689.2,302.5c-51.9,22.4-59.8,64.2-61.7,77.8c-7.2,0.3-9.8-0.8-9.8-0.8s13.2-60.4,55.1-71.7
		c4.7-1.3,9.3-2.8,13.8-4.6l0.8-0.3C688,302.8,688.6,302.6,689.2,302.5z"/>
	<path class="st5" d="M276.2,301.5l0.1,7.7c-2.5,0.6-4.9,1.2-7.1,1.6V307L276.2,301.5z"/>
	<path class="st5" d="M294.7,298.5l0.1,5.3c-2.5,0.8-4.8,1.6-7.1,2.2v-2L294.7,298.5z"/>
	<path class="st5" d="M313.2,286l0.2,11.2c-2.5,0.9-4.8,1.8-7.1,2.7v-8.3L313.2,286z"/>
	<path class="st5" d="M331.2,278.5l0.2,11.6c-2.3,0.9-4.7,1.8-7.1,2.8V284L331.2,278.5z"/>
	<path class="st5" d="M348.7,273.5l0.1,10.3c-2.3,0.8-4.6,1.6-7.1,2.5V279L348.7,273.5z"/>
	<path class="st5" d="M374.2,261l0.2,15.6c-2.2,0.5-4.6,1-7.2,1.7v-11.8L374.2,261z"/>
	<path class="st5" d="M401,276.4c-2.4-0.9-4.8-1.4-7.3-1.6v-18.3l7-5.5L401,276.4z"/>
	<path class="st3" d="M426.2,276.5c0,0-18.5,0-23.5-1.5s-15.5-9.5-80,16.5c-39,15.7-60.6,19.4-71.6,19.8c-7.2,0.3-9.9-0.8-9.9-0.8
		s9.9-52.5,53.7-61.4c2.4-0.5,4.9-1.1,7.2-1.9c2.7-0.9,6.9-2.1,12.6-3.5c14.7-3.4,39.1-7.1,71.5-5.5c11.2,0.4,21.9,5.1,29.8,13.1
		C422.7,258,426.4,267.1,426.2,276.5z"/>
	<path class="st1" d="M314.8,243.8c-51.9,22.4-61.9,53.9-63.7,67.5c-7.2,0.3-9.9-0.8-9.9-0.8s9.9-52.5,53.7-61.4
		c2.4-0.5,4.9-1.1,7.2-1.9C304.8,246.4,309.1,245.1,314.8,243.8z"/>
	<polygon class="st1" points="255.7,389.7 255.4,375 260.7,372.2 619.7,452.7 618.7,471.5 	"/>
	<polyline class="st3" points="260.7,372.2 619.7,452.7 619.2,459.7 256.2,374.6 	"/>
	<circle class="st6" cx="788.7" cy="728.5" r="12"/>
	<circle class="st6" cx="629.7" cy="796.5" r="12"/>
	<path class="st4" d="M269.4,549.8c0,0-10.7,12-14,22.7c-3.3,10.7,4,50.7,4,50.7c3.8-6.7,6.5-13.9,8-21.3
		C270,589.2,269.4,549.8,269.4,549.8z"/>
	<path class="st4" d="M775.7,649.5c0,0,6.5,33,7,38s-16.5-2.5-16.5-2.5L775.7,649.5z"/>
	
		<linearGradient id="SVGID_1_" gradientUnits="userSpaceOnUse" x1="513.6819" y1="-1.0986" x2="513.6819" y2="785.8397" gradientTransform="matrix(1 0 0 -1 -62.73 812.37)">
		<stop  offset="0" style="stop-color:#808080;stop-opacity:0.25"/>
		<stop  offset="0.54" style="stop-color:#808080;stop-opacity:0.12"/>
		<stop  offset="1" style="stop-color:#808080;stop-opacity:0.1"/>
	</linearGradient>
	<path class="st7" d="M578.7,241.2h-0.2c0-0.3-0.2-0.7-0.4-0.9c-0.5-0.5-1-1-1.7-1.3l-4.7-2.6l4,1.5c-0.2-0.3-0.4-0.6-0.6-0.9
		l0.5,0.3l-0.3-0.5l-0.4-0.1c-2.2-2.5-5.8-3.6-9.3-3.5h0.1c0.5-0.1,0.9-0.1,1.4-0.1c-1-0.1-2,0-3,0.1l0,0c0.1,0,0.2,0.1,0.3,0.1
		c-0.3,0-0.6,0.1-1,0.1c-0.5,0.1-1.1,0.1-1.6,0c-0.6-0.3-1.1-0.9-1.2-1.6c-0.5-2,0.3-4.1,0.5-6.2c0.1-1,0-2-0.3-2.9
		c0-0.2,0-0.4,0-0.6c-0.3-0.9-1.1-1.6-2-1.8c0,0.1,0,0.2,0,0.2l-0.2-0.1c0,1.8,0,3.6,0,5.4c-1.6-1.2-2.9-2.7-4.1-4.3
		c-0.2-0.2-0.3-0.5-0.4-0.9c-0.1-0.9,1.1-1.5,1.1-2.5c0-0.6-0.4-1.1-1-1.3l0.3-0.1c-0.4-0.2-0.7-0.2-1.1-0.2
		c-0.9,0.2-1.7,0.4-2.5,0.8l0.3,0.1c-0.2,0.1-0.4,0.1-0.6,0.2c-2.5,0.5-4.8-1.5-6.6-3.3l-0.4-0.4c-0.9-7.5-2.3-16.2-2.3-16.2
		s-1.3-9.9-3-15.2s-4.3-14.7-4.3-14.7s-5.8-11.4-7-11.9c-0.5-0.2-1-0.5-1.4-0.8c-0.5-1.7-0.9-3.5-1-5.2c-0.3-9.9,10.3-17,11.9-26.8
		c1.3-8-3.7-16-3-24.1c0.3-3.6,1.8-6.9,2.5-10.4c0.7-3.4,0.8-6.9,0.3-10.3c-0.3-1.8-0.8-3.6-1.6-5.3c1.5-1.9,2.7-3.9,3.6-6.1
		c1.6-4.6-0.1-9.8-2.7-14c-8.1-13.4-24.6-24-40-25.4c-6.2-0.6-12.4-0.7-18.7-0.8c-7.1-0.1-14.5-0.2-21.1,2.5
		c-13.1,5.5-19.3,20.2-27.3,32c-6.6,9.8-15,18.2-24.8,24.8c-4.6,3.1-10,6.4-11.1,11.8c-0.1,0.5-0.2,1.1-0.2,1.6
		c-0.1-0.5-0.2-1-0.3-1.5c-1.1,5.7,2.9,11,5,16.5c1.1,2.8,1.7,5.8,1.8,8.9c0.1-1.4,0.1-2.9,0-4.3c2,10.4-1.7,21.5-3.9,32.1
		c-0.2,0.8-0.3,1.6-0.5,2.3c-1.9,0.5-3.6,1.3-5.3,2.4c-3.6,2.4-7.6,3.9-11.8,4.6c-5.7,0.9-10.8,4-14.2,8.5c-0.6,0.9-1.3,1.4-1.8,1.5
		c-2.3,0.3-14.8,39.4-14.8,39.4s-2.6,16.1-2.6,19.9c0,3.8-4.5,31.1-4.5,31.1s-1.5,5-1,7.1c0.3,1.1-0.4,5-1,8.1
		c-0.3-0.1-0.5-0.3-0.7-0.5c-0.8-1.5-14.5,0-10.3,10.1c1.1,2.7,2.7,5.2,4.8,7.2c-1.9,4.8-3.5,9.2-3.3,9.8c0,0,0,3.6,0.3,8.1
		c-2.9,2-5.3,3.8-5.3,3.8c-0.2,5.5,3.5,6.4,6.9,6.2c0.9,3.2,2.2,5.7,4.1,6.4c6.3,2.3,10.3,1.3,12.3,3s12.7,5.1,12.7,5.1
		c4.6,0.7,9.1,1.1,13.7,1.3l1.8,0.9l-0.2-1c0.6-0.1,0.3-0.8-0.4-2c-0.3-1.5-0.8-3.5-1.2-5.8l2.8-1l0.8,1.1c-1,5.2-1.6,8.7-1.6,8.7
		s-5,17.9-2.8,20.7s0,6.3,0,6.3s-0.5,4.5,0.8,4.5s2.8,5.8,1.5,6.1s-7,5-5,6.1s0,3.3,0,5.6c0,1.7,3.1,4.1,4.7,5.3
		c-0.3,1.1-0.6,2.2-0.9,3.4c-0.9,3.3-1.5,6.6-1.3,7.7c0.5,2.8-1.3,10.6-0.8,13.1s2.3,8.1,1,10.4s0.3,9.9,0.3,9.9l2.3,21.5
		c0,0-1.5,6.1,0,7.6s2.8,19.2,4.3,21.2s3.8,12.6,2,16.2s2.3,10.9,2.3,10.9s-0.3,8.6-0.3,10.9s2.3,5.8,2.3,5.8s2.3,12.1,2,15.2
		s1.5,7.3,1.5,7.3s1.5,8.8,1.3,10.9s2,4.8,2,4.8s2.8,6.6,2,9.3s1.8,5.6,1.8,5.6s-0.3,6.1-0.3,6.8s5.3,6.8,5.3,6.8s-2.3,4.5-1,6.3
		s1,8.1,3,10.1s1.5,10.3,4,11.9s4.8,2.8,5.3,6.1s2.5,8.1,4.8,8.8c0.4,0.3,0.8,0.7,1.1,1.1l-1,4.3l-3.1,12.8c0,0-3,18.7-2.8,21.5
		s-3,5.6-3,5.6s-2.8,16.2-3.3,18.2s0.3,5.8,0.3,5.8s-1.8,9.6-0.5,10.1s6.5,5.8,6.5,5.8h0.4l-0.5,1.9l-8.6,30.7c0,0-8,13.4,10.5,20.2
		c0.6,1.2,1.2,1.2,0.5,1c0.6,0.5,13,11,14,15.9s9.5,10.1,12.5,10.6s23.1,16.7,30.3,0.8s-12.8-26.3-12.8-26.3l-15.3-9.8
		c0,0-7.8-11.4-9-13.4s-3.5-11.9-2-13.4c0.8-0.8,3.2-7.7,5.4-14.3c0.2-0.6,0.4-1.3,0.6-1.9c4.3,1,9.1-1,9.1-1l11.2-17.6l2-3.1
		l0.4,0.7c0,0,9.3,0.8,13.8,1.5c1.4,0.1,2.9-0.1,4.2-0.5c0.2,0.4,0.3,0.8,0.5,1.1c1.1,2.3,2,4.8,2.8,7.2c0.8,3.3,1.5,14.9,1.5,14.9
		s-5,16.7-6.3,19.7s1.3,28.3,26.1,18.2c0,0,3-4.8,5.8-4.8s9.5-6.8,7-14.2s-13-29.8-5.8-41.7c5.8-9.6,5.4-22.4-2.5-28.3
		c-0.3-0.3-0.7-0.5-1-0.7c0.1-1.3,0.1-2.5,0-3.8c-1.8-24.3-13-25.5-13-25.5s-6.5-1.5-7.3-4c-0.4-1.5-6.1-9-10.8-15.1
		c0.2-0.3,0.3-0.5,0.5-0.8c0-0.1,0.1-0.2,0.1-0.3c0.2-0.4,0.4-0.8,0.6-1.3c3.6-8.2,2.7-20.1,2.5-22.2c-0.3-2.8,0-6.3,0-10.4
		s4-10.1,3.5-12.4s4.8-11.6,4.8-13.9s3.7-15.9,3.7-15.9s7.3-15.7,8.8-20.2c1.4-4.4,27.1-83.8,29.2-90.3c0-0.1,0.1-0.3,0.1-0.4
		c0,0,8.2-26.8,2.7-44.5c-0.4-1.2-0.8-2.3-1.3-3.4c1.7-0.8,2.8-1.4,2.8-1.4s-3.3-9.6-1.8-13.1s0.5-10.4,0.5-10.4s-6-3.5-6.3-5
		s-2.8-3.5-2-5.6s5-1,4.5-5.6s-5.8-9.4-5.3-12.1s2.5-7.8,0-10.9s-3.5-7.8-3.8-11.6c-0.1-1,0.2-4,0.5-7.8c2.7,1.7,5.4,3.2,8.3,4.5
		c0,0,10.8,1.5,11.3,0.5c1-1.3,2.1-2.5,3.3-3.5c13.5-3.3,7.5-28,7.5-28s-0.2-1.8-0.5-4.8c0.3-0.1,0.7-0.2,0.9-0.5
		c1.2-0.8,1.4-2.4,2.1-3.7c0.8-1.2,1.7-2.3,2.8-3.3c2.5-2.7,4-6.1,5.4-9.5c0.9-2.2,1.8-4.3,2.7-6.5s2-4.8,4-6.3
		c2.3-1.9,5.4-2.2,8.3-2.5c-0.1-2.2-1-4.4-2.4-6.1c1.8-0.5,3.7-0.3,5.3,0.8c0-0.1,0.1-0.1,0.1-0.2h0.1
		C578.6,241.8,578.7,241.5,578.7,241.2z M364.6,310.4c0.1-0.5,0.1-1,0.3-1.5c0.5-0.5,1.1-1,1.7-1.5l3.5,0.3
		c-0.9,0.7-1.6,1.3-2.2,1.9C366.7,309,365.5,309.6,364.6,310.4z M371.6,303.4c0.5,0,1-0.1,1.5-0.3c0.7,0,1.4,0,2.1,0h1
		c-1.7,1.2-3.4,2.5-4.9,3.7L371.6,303.4L371.6,303.4z M377.3,252.4c0,0-0.2,7.2,0.3,14.4c-0.8,0.5-1.6,1.1-2.4,1.8L377,252
		L377.3,252.4z"/>
	<path class="st8" d="M507.9,762.7c-2.8,0-5.8,4.8-5.8,4.8c-24.8,10-27.3-15-26-18s6.3-19.5,6.3-19.5s-0.8-11.5-1.5-14.8
		c-0.8-2.4-1.7-4.8-2.8-7.2c-1.7-3.8-3.5-7.6-3.5-7.6s10.8-26.5,25-24c2.5,0.4,4.9,1.5,7,3c7.8,5.9,8.3,18.6,2.5,28
		c-7.3,11.8,3.3,34,5.8,41.3S510.7,762.7,507.9,762.7z"/>
	<path class="st8" d="M470.2,805c-7.3,15.8-27.3-0.3-30.3-0.8s-11.5-5.5-12.5-10.5s-13.4-15.2-14-15.7c0.7,0.2,0.1,0.2-0.5-1
		c-18.5-6.8-10.5-20-10.5-20l8.6-30.4l2.4-8.4l27-1.8c0,0-1.9,5.9-3.9,12.1c-2.2,6.5-4.6,13.4-5.3,14.1c-1.5,1.5,0.8,11.3,2,13.3
		s9,13.3,9,13.3l15.3,9.8C457.4,779,477.4,789.2,470.2,805z"/>
	<path class="st5" d="M440.4,716.5c0,0-1.9,5.9-3.9,12.1c-1.4-0.4-2.7-1.2-3.6-2.4l-21.8,0.5l-0.1-0.1l2.4-8.4L440.4,716.5z"/>
	<path class="st9" d="M528.4,444.7c0,0,0,0.1-0.1,0.4c-2.1,6.4-27.7,85-29.1,89.3c-1.5,4.5-8.8,20-8.8,20s-3.8,13.5-3.8,15.8
		s-5.3,11.5-4.8,13.8s-3.5,8.3-3.5,12.3s-0.3,7.5,0,10.3c0.2,2.1,1.1,13.9-2.5,22c-0.8,1.9-2,3.6-3.5,5c-0.4,0.4-0.8,0.7-1.3,1
		c-9,6-9.8,67.5-9.8,67.5l-0.4,0.7l-3.7,5.7l-11.2,17.4c0,0-9,3.8-13.3-1.5l-21.8,0.5c0,0-5.3-5.3-6.5-5.8s0.5-10,0.5-10
		s-0.8-3.8-0.3-5.8s3.3-18,3.3-18s3.3-2.8,3-5.5s2.8-21.3,2.8-21.3l3.1-12.7l1.5-6.3l3.1-13l21.3-187.8l27-8.3l52,2.5l5.7,10.3
		L528.4,444.7z"/>
	<path class="st5" d="M455.2,537c-0.3,4.8-1.5,12-1,16.3s2.3,20.3,1.5,23.3s2.8,6.5,4,8s0.5,6,0.8,9.5s3.5,6.8,3.5,6.8s-3.8,8-1,9.3
		s8.5,12.8,8.5,12.8s1.9,2.4,4.5,5.7c-1,2.4-2.6,4.5-4.7,6c-9,6-9.8,67.5-9.8,67.5l-0.4,0.7l-5.6-11.2c0,0-33.3-50.3-35.5-51
		c-0.5-0.2-1-0.6-1.4-1l3.1-13l21.3-187.8l27-8.3l52,2.5l-27.4,2.8c0,0-12.2,8.7-12.3,9l-21.9,9.3l-4,60
		C456.4,514,455.4,532.2,455.2,537z"/>
	<path class="st5" d="M527.6,443.3c-0.7,2.8-72.7-5.5-72.7-5.5l0.5,19.3l-4,60c0,0-1,18.3-1.3,23s-1.5,12-1,16.3s2.3,20.3,1.5,23.3
		s2.8,6.5,4,8s0.5,6,0.8,9.5s3.5,6.8,3.5,6.8s-3.8,8-1,9.3s8.5,12.8,8.5,12.8s2.8,3.5,6,7.7c-0.4,0.4-0.8,0.7-1.3,1
		c-9,6-9.8,67.5-9.8,67.5l-0.4,0.7l-3.6,5.7l-6.9-13.8c0,0-25.6-38.8-33.4-48.7l1.5-6.3l3.1-13l21.3-187.8l27-8.3l52,2.5
		L527.6,443.3z"/>
	<path class="st5" d="M506.7,679.5c-1,17.9-19.9,26.7-28.5,28.6c-1.7-3.8-3.5-7.6-3.5-7.6s10.8-26.5,25-24
		C502.2,676.9,504.6,677.9,506.7,679.5z"/>
	<path class="st9" d="M452.2,537c-0.3,4.8-1.5,12-1,16.3s2.3,20.3,1.5,23.3s2.8,6.5,4,8s0.5,6,0.8,9.5s3.5,6.8,3.5,6.8s-3.8,8-1,9.3
		s8.5,12.8,8.5,12.8s16.3,20.5,17,23s7.3,4,7.3,4s11.3,1.3,13,25.3s-27.8,33.3-32.3,32.5s-13.8-1.5-13.8-1.5l-7.3-14.5
		c0,0-33.3-50.3-35.5-51s-4.3-5.5-4.8-8.8s-2.8-4.5-5.3-6s-2-9.8-4-11.8s-1.8-8.3-3-10s1-6.3,1-6.3s-5.3-6-5.3-6.8s0.3-6.8,0.3-6.8
		s-2.5-2.8-1.8-5.5s-2-9.3-2-9.3s-2.3-2.8-2-4.8s-1.3-10.8-1.3-10.8s-1.8-4.3-1.5-7.3s-2-15-2-15s-2.3-3.5-2.3-5.8
		s0.3-10.8,0.3-10.8s-4-7.3-2.3-10.8s-0.5-14-2-16s-2.8-19.5-4.3-21s0-7.5,0-7.5l-2.3-21.3c0,0-1.5-7.5-0.3-9.8s-0.5-7.8-1-10.3
		s1.3-10.3,0.8-13c-0.2-1.2,0.5-4.3,1.3-7.6c1.2-4.6,2.7-9.4,2.7-9.4s128.5-12,147,0.5c4,2.7,6.5,6.8,8,11.5c5.5,17.4-2.7,44-2.7,44
		l-71,9.3l-4,60C453.5,514,452.4,532.2,452.2,537z"/>
	<path class="st5" d="M431.7,626c0,0,22.3-6.8,27.5-2.3S431.7,626,431.7,626z"/>
	<path class="st5" d="M439.7,654.5c0,0,6.8-7.3,16.8-5c5.9,1.4,12,0.8,17.5-1.8L439.7,654.5z"/>
	<path class="st5" d="M463.2,662.7c0,0,18.3-2.5,19-0.3S463.2,662.7,463.2,662.7z"/>
	<path class="st5" d="M457.9,677.5c0,0,20.3-6,21.3-3.5s-22.3,3.3-22.3,3.3L457.9,677.5z"/>
	<path class="st5" d="M480.7,542.7c0,0-19,16.8-16.3,18.5S480.7,542.7,480.7,542.7z"/>
	<path class="st5" d="M465.2,584.2c0,0,13.3,0,10.8,3S465.2,584.2,465.2,584.2z"/>
	<path class="st5" d="M473.2,596c0,0-5.3,4.5-4,5.5S473.2,596,473.2,596z"/>
	<path class="st5" d="M415.4,703.2c0,0,16.5,5.5,16.8,9S415.4,703.2,415.4,703.2z"/>
	<path class="st8" d="M495.4,180.5l-5.3,31.3c0,0-45.5,24-46.3,24s-33.3-5.5-34.5-5.5s-22.5-64.3-7.5-68.3c4.1-1.1,10-3.7,16.4-6.9
		c17.3-8.7,38.6-21.8,38.6-21.8s31.8-3.5,24,18.5c-3,8.6-1.5,14.9,1.6,19.4C487.3,178,495.4,180.5,495.4,180.5z"/>
	<path class="st5" d="M495.4,180.5l-5.3,31.3c0,0-45.5,24-46.3,24s-33.3-5.5-34.5-5.5s-22.5-64.3-7.5-68.3c4.1-1.1,10-3.7,16.4-6.9
		c4.1,0.3,6.9,0.7,6.9,0.7s10,38.3,10.8,50s26.8,13,28.5,12.5s9-29.3,9-29.3s-0.8-10,1.5-10c1.9,0,6.2-6,7.6-7.9
		C487.3,178,495.4,180.5,495.4,180.5z"/>
	<path class="st5" d="M531.2,400.8c-3.5,1.7-11.8,5.6-14,5c-2.8-0.8-9.5-0.8-9.5-0.8s-4,4.5-8.3,3.5s-21-0.3-21-0.3
		s-30,1.3-35.8-0.8s-26.3-3.8-26.3-3.8s-28-3.3-32.8-5.3c-2.7-1.2-5.9-0.8-8.3,1c0,0-0.9-0.6-1.9-1.4c1.2-4.6,2.7-9.4,2.7-9.4
		s128.5-12,147,0.5C527.2,391.9,529.7,396,531.2,400.8z"/>
	<path class="st10" d="M425.2,157.7c0,0-25.3-3.5-35.3,3.3c-3.6,2.3-7.6,3.9-11.8,4.6c-5.6,0.9-10.7,3.9-14.2,8.4
		c-0.6,0.9-1.3,1.4-1.8,1.5c-2.3,0.3-14.8,39-14.8,39l30.3,42.3c0,0-0.8,23.5,3.5,28s-6,56-6,56s-5,17.8-2.8,20.5s0,6.3,0,6.3
		s-0.5,4.5,0.8,4.5s2.8,5.8,1.5,6s-7,5-5,6s0,3.3,0,5.5s5.8,6,5.8,6c2.4-1.8,5.5-2.2,8.3-1c4.8,2,32.8,5.3,32.8,5.3
		s20.5,1.8,26.3,3.8s35.8,0.8,35.8,0.8s16.8-0.8,21,0.3s8.3-3.5,8.3-3.5s6.8,0,9.5,0.8s15.5-5.8,15.5-5.8s-3.3-9.5-1.8-13
		s0.5-10.3,0.5-10.3s-6-3.5-6.3-5s-2.8-3.5-2-5.5s5-1,4.5-5.5s-5.8-9.3-5.3-12s2.5-7.8,0-10.8s-3.5-7.8-3.8-11.5s3.8-37.8,3.8-37.8
		l-9.3-68.5l28.3-14c0,0-1.3-9.8-3-15s-4.3-14.5-4.3-14.5s-5.8-11.3-7-11.8s-14.5-9.3-17.5-8c-3,1.3-26.8,19.5-26.8,19.5
		s-5.8,8.5-8,8.5s-1.5,10-1.5,10s-7.3,28.8-9,29.3s-27.8-0.8-28.5-12.5S425.2,157.7,425.2,157.7z"/>
	<path class="st8" d="M386,305.5c-3.5,0.8-7,1.2-10.5,1.3c-5.1,0.1-9.6-0.5-10.8-2.4c-3-5-3-14.5-3-14.5s13.6,3.1,22.9,6.5l1.5,0.6
		l0,0c3.6,1.4,6.4,2.9,7,4.1C394,302.9,390.7,304.5,386,305.5z"/>
	<circle class="st5" cx="484.2" cy="120.7" r="45.7"/>
	<circle class="st8" cx="484.2" cy="118.7" r="45.7"/>
	<path class="st5" d="M382.9,365.7c0,0,13,0,18,1.3s15.5,1.5,15.5,1.5S387.4,367.5,382.9,365.7z"/>
	<path class="st5" d="M383.4,373.7c0,0,16.8,1.3,17,3.8S383.4,373.7,383.4,373.7z"/>
	<path class="st5" d="M510.9,343c0,0,10.3,3.8,10,5S511.9,346,510.9,343z"/>
	<path class="st10" d="M353.9,210l-6.5,4.5c0,0-2.8,16-2.8,19.8s-4.5,30.8-4.5,30.8s-1.5,5-1,7s-2,12.3-2,12.3s-9,20.8-8.5,22
		s42.8,5.3,42.8,5.3l6-56L353.9,210z"/>
	<path class="st10" d="M334.9,299.5l-6.3,6.8c0,0-0.3,22,6,24.3s10.3,1.3,12.3,3s12.8,5,12.8,5s11.8,1.8,15.3,1.3s-20.5-19.8-4.8-36
		L334.9,299.5z"/>
	<path class="st10" d="M532.7,192.5l8.8,9.8c0,0,3.8,23.3,2.8,26.5s5.3,59.8,5.3,59.8s6,24.5-7.5,27.8c-1.2,1.1-2.3,2.2-3.3,3.5
		c-0.5,1-11.3-0.5-11.3-0.5L510.9,211L532.7,192.5z"/>
	<path class="st5" d="M413.7,282c0,0,32.8-19.5,38.8-20.5c6-1,43.3-18.8,43.3-18.8s18.5,9.5,20.3,16.8s-7.8,36.3-7.8,36.3
		s-30.5,21.3-32.3,25.8s-28,17.8-28,20s-41.5,26.8-59.8,5.3s-18-27.8-18-27.8l46.3-10.8l4.5-20L413.7,282z"/>
	<path class="st11" d="M413.7,280c0,0,32.8-19.5,38.8-20.5c6-1,43.3-18.8,43.3-18.8s18.5,9.5,20.3,16.8s-7.8,36.3-7.8,36.3
		s-30.5,21.3-32.3,25.8s-28,17.8-28,20s-41.5,26.8-59.8,5.3s-18-27.8-18-27.8l46.3-10.8l4.5-20L413.7,280z"/>
	<path class="st8" d="M363.2,288.7l-1.5,12.5l-11.9-0.9l-11.6-0.9c0,0-6.8,0-11-10s9.5-11.5,10.3-10c0.6,1.1,15,5.8,22,8.1
		L363.2,288.7z"/>
	<path class="st5" d="M363.2,288.7l-1.5,12.5l-11.9-0.9c1.9-2.9,6-8.1,9.6-12.8L363.2,288.7z"/>
	<path class="st5" d="M361.7,290c0,0,13.6,3.1,22.9,6.5c-0.6,1-4.8,7.5-9.2,10.3c-5.1,0.1-9.6-0.5-10.8-2.4
		C361.7,299.5,361.7,290,361.7,290z"/>
	<path class="st5" d="M386,305.5l-0.2-1.7c0,0-0.1-0.4-0.2-0.9c-0.2-1.1-0.3-3.1,0.5-4.2c0.5-0.7,0.4-1.2,0.1-1.5
		c3.6,1.4,6.4,2.9,7,4.1C394,302.9,390.7,304.5,386,305.5z"/>
	<path class="st8" d="M428.4,297.4c0,0-13.6,13.6-14.4,16.5s-26.5,3-26.5,3l-1.8-14c0,0-0.1-0.4-0.2-0.9c-0.2-1.1-0.3-3.1,0.5-4.2
		c1.3-1.8-1.4-2.3-1.4-2.3s-6.9,11.4-12.8,11.8c0,0-8.1,5.8-8,7c0,0-3.9,3.6-4,7.9s-5.1,6.1-8.8,4.8s-12.8-3.9-15.7-3.5
		s-12.2,3.2-11.8-5.4c0,0,12-9,15-8.8s10-3.3,11-6s18-23.8,18-23.8s10.8-10.2,15.1-11.2c0,0,8.7-6.8,21.8,3.5
		c0,0,18.1,11.2,18.7,12.7c0.5,1.2,5.7,6.2,6.1,10C429.5,295.6,429.2,296.6,428.4,297.4z"/>
	<path class="st5" d="M386,277.5c0,0,1.3,7.7,0.7,10.4s-2,7.5-2,7.5S392.8,282.7,386,277.5z"/>
	<path class="st5" d="M386.6,296.2c0,0,4.2-4.6,5.1-3.4S386.6,296.2,386.6,296.2z"/>
	<path class="st12" d="M557.3,249.4c0,13.1-8.7,24.6-21.2,28.1c-2.6,0.7-5.2,1.1-7.9,1.1h-0.2c-16.2,0-29.2-13.1-29.2-29.3l0,0
		c0-1.7,0.1-3.4,0.5-5.1c2.3-13.2,13.3-23,26.7-24c0.7-0.1,1.4-0.1,2.1-0.1C544.2,220.2,557.3,233.2,557.3,249.4z"/>
	<path class="st13" d="M572.8,245.8c1.4,1.7,2.3,3.8,2.4,6.1c-2.9,0.3-6,0.6-8.3,2.5c-2,1.6-3,4-4,6.3c-0.9,2.1-1.8,4.3-2.7,6.4
		c-1.4,3.4-2.9,6.8-5.3,9.4c-1,1-2,2-2.8,3.2c-0.7,1.3-1,2.8-2.1,3.7c-1.1,0.7-2.6,0.8-3.8,0.2c-1.2-0.5-2.3-1.2-3.6-1.7
		c-0.8-0.3-1.6-0.5-2.5-0.6l0,0c-3.7-0.5-7.7,0.3-10.8-1.7c-0.4-0.2-0.7-0.5-1-0.8c-1.2-1.2-2.1-2.7-2.5-4.3
		c-0.2-0.7-0.3-1.4-0.2-2.1c0.3-1.3,1.1-2.4,2.3-3c0.2-0.1,0.3-0.2,0.5-0.3c3-1.6,7.2-1.9,8.7-5c1.5-2.9-0.4-6.4-2.6-8.8
		c-1.1-1.1-2.4-2.4-2.2-3.9c0.1-1.4,1.3-2.3,2.4-3.2c2.9-2.6,4.8-6,5.5-9.8c0.3-1.2,0.2-2.4-0.1-3.5c-0.3-0.8-0.7-1.6-1.3-2.3
		l-3.2-4.8c-1-1.7-2.4-3.1-4-4.2c-1.3-0.8-2.9-1.1-4.3-1.9c-0.5-0.3-1-0.7-1.3-1.2c-0.2-0.3-0.2-0.6-0.2-0.9c0.2-0.8,1-1.2,1.8-1.4
		c2.1-0.6,4.4-0.8,6.6-0.6c0.7,0.2,1.4,0.2,2.1,0c0.7-0.2,1.2-0.9,1.1-1.6c2.5-0.6,4.8,1.3,6.6,3.1s4,3.8,6.5,3.3
		c0.9-0.2,1.8-0.7,2.7-0.8s2.1,0.5,2,1.4s-1.2,1.5-1.1,2.4c0.1,0.3,0.2,0.6,0.4,0.8c1.2,1.6,2.5,3,4.1,4.2c0-1.8,0-3.5,0-5.3
		c2,0.5,2.7,3.1,2.5,5.1s-1,4.2-0.5,6.2c0.1,0.7,0.6,1.3,1.2,1.6c0.5,0.1,1.1,0.1,1.6,0c4.6-0.6,10,0.6,12.2,4.6l-4-1.5l4.7,2.5
		c0.6,0.3,1.2,0.7,1.7,1.3c0.5,0.6,0.5,1.3,0.1,1.9C576.5,245.5,574.5,245.2,572.8,245.8z"/>
	<g class="st14">
		<path d="M563.9,237.4c0.5,0.1,1.1,0.1,1.6,0c0.5-0.1,0.9-0.1,1.4-0.1C565.9,237.3,564.9,237.3,563.9,237.4L563.9,237.4z"/>
		<path d="M573.7,240.6l1.7,1l-0.3-0.5L573.7,240.6z"/>
		<path d="M560.8,229.8c0-1.2,0-2.3,0-3.5c-0.4-0.9-1.1-1.6-2-1.8v3.5C559.4,228.7,560.1,229.3,560.8,229.8z"/>
		<path d="M575.7,245.4c0.9,0.2,1.7,0.5,2.5,1c0.2-0.2,0.3-0.5,0.3-0.8C577.5,245.4,576.6,245.3,575.7,245.4z"/>
		<path d="M548.3,283.4c-1.2-0.5-2.3-1.2-3.6-1.7c-0.8-0.3-1.6-0.5-2.5-0.6l0,0c-3.7-0.5-7.7,0.3-10.8-1.7c-0.4-0.2-0.7-0.5-1-0.8
			c-1.2-1.2-2.1-2.7-2.5-4.3c-0.2-0.7-0.3-1.4-0.2-2.1c0.3-1.3,1.1-2.4,2.3-3c0.2-0.1,0.3-0.2,0.5-0.3c3-1.6,7.2-1.9,8.7-5
			c1.5-2.9-0.4-6.4-2.6-8.8c-1.1-1.1-2.4-2.4-2.2-3.9c0.1-1.4,1.3-2.3,2.4-3.2c2.9-2.6,4.8-6,5.5-9.8c0.3-1.2,0.2-2.4-0.1-3.5
			c-0.3-0.8-0.7-1.6-1.3-2.3l-3.2-4.8c-1-1.7-2.4-3.1-4-4.2c-1.3-0.8-2.9-1.1-4.3-1.9c-0.5-0.3-1-0.7-1.3-1.2
			c-0.2-0.3-0.2-0.6-0.2-0.9c0.2-0.8,1-1.2,1.8-1.4c1.3-0.4,2.6-0.6,4-0.7c-2-0.1-4.1,0.1-6,0.7c-0.8,0.2-1.7,0.6-1.8,1.4
			c-0.1,0.3,0,0.7,0.2,0.9c0.3,0.5,0.7,0.9,1.3,1.2c1.4,0.8,2.9,1.1,4.3,1.9c1.6,1.1,3,2.5,4,4.2l3.2,4.8c0.5,0.7,1,1.5,1.3,2.3
			c0.3,1.2,0.3,2.4,0.1,3.5c-0.7,3.8-2.6,7.2-5.5,9.8c-1,0.9-2.2,1.9-2.4,3.2c-0.2,1.5,1.1,2.8,2.2,3.9c2.3,2.3,4.1,5.9,2.6,8.8
			c-1.6,3-5.7,3.4-8.7,5c-0.2,0.1-0.3,0.2-0.5,0.3c-1.2,0.6-2,1.7-2.3,3c-0.1,0.7,0,1.4,0.2,2.1c0.5,1.6,1.3,3.1,2.5,4.3
			c0.3,0.3,0.6,0.6,1,0.8c3.1,2,7.1,1.2,10.8,1.7l0,0c0.8,0.1,1.7,0.3,2.5,0.6c1.2,0.5,2.3,1.3,3.6,1.7c0.9,0.4,1.9,0.5,2.8,0.2
			C548.8,283.5,548.5,283.5,548.3,283.4z"/>
		<path d="M552.8,221.7c0.6-0.2,1.2-0.4,1.8-0.6c-0.4-0.2-0.7-0.2-1.1-0.2c-0.8,0.2-1.7,0.5-2.5,0.8
			C551.5,221.8,552.2,221.8,552.8,221.7z"/>
		<path d="M536.4,217c0.7,0.1,1.4,0.1,2.1-0.1c0.7-0.2,1.2-0.9,1.1-1.6c-0.7-0.2-1.3-0.2-2,0c0.1,0.7-0.4,1.4-1.1,1.6
			C536.5,217,536.4,217,536.4,217L536.4,217z"/>
	</g>
	<path class="st8" d="M501.7,233.4c-3.7,2.8-9.7,4-15.2,4.4c-4.3,0.3-8.6,0.3-12.8,0l-9.6-3.6c0,0,0.8-1.5,2.1-3.6
		c2.6-4.1,7.4-10.1,12.4-9.9c7.5,0.4,15.4,0.7,16.1,0.7S510.1,227.1,501.7,233.4z"/>
	<path class="st15" d="M477.3,33.2c-7.1-0.1-14.5-0.2-21,2.5c-13.1,5.4-19.3,19.9-27.3,31.6c-6.6,9.7-15,18-24.8,24.5
		c-4.6,3-9.9,6.3-11,11.7c-1.2,5.7,2.9,11,5,16.4c4.5,11.5,0,24.3-2.6,36.3c-1.2,5.8-2,11.7-2.4,17.6c-0.3,2.7-0.1,5.5,0.5,8.2
		c2,7.1,9.6,12.2,9.6,19.5c0,5-3.5,9.7-2.5,14.6c1.3,6.2,8.9,8.4,15.1,9.5c1.5,0.4,3.1,0.4,4.5-0.1c1-0.5,1.8-1.4,2.8-1.9
		c3.5-1.7,7.3,1.9,11.2,1.8c4.9-0.1,7.6-5.8,7.7-10.7s-1.2-10,0.6-14.5c2.3-6,9-8.9,14.6-12c6.2-3.5,12.2-8.5,14-15.4
		c1.2-4.3,0.6-8.8,0.2-13.1c-0.7-6.7-1.3-13.5-1.6-20.2c-1-17.2,13.3-31.5,30.5-30.2h0.3c5,0.4,10.9,0.9,14.4-2.8
		c1.4-1.4,2.3-3.4,4-4.4c3.3-1.9,7.9,0.8,11.3-1.1c2.6-1.5,3.2-5,2.8-8s-1.5-6-0.9-8.9c0.8-4.2,4.6-7.2,6-11.2
		c1.6-4.6-0.1-9.7-2.7-13.8c-8.1-13.3-24.5-23.7-39.9-25.1C489.7,33.4,483.5,33.3,477.3,33.2z"/>
	<path class="st5" d="M466.2,230.5c5.9,1.2,13.2,3.9,20.4,7.2c-4.3,0.3-8.6,0.3-12.8,0l-9.6-3.6
		C464.1,234.1,464.8,232.6,466.2,230.5z"/>
	<path class="st5" d="M540.1,281.2c-3.7-0.5-7.7,0.3-10.8-1.7c-0.4-0.2-0.7-0.5-1-0.8h-0.2c-16.2,0-29.3-13.1-29.3-29.2c0,0,0,0,0,0
		c0-1.7,0.1-3.4,0.5-5.1c10.3,5.7,18.6,11.6,20.2,14.5c2.4,3.8,5.1,7.3,8.3,10.5c2.8,3,5.8,5.9,8.3,8.3
		C537.6,278.9,539,280.2,540.1,281.2z"/>
	<path class="st8" d="M541.7,284.5c0,0-18.3-15.8-23.3-24.8s-75.3-47.3-66.3-18.3s40,31.8,40,31.8s10,11.3,11,16.8
		s4.5,13.5,4.5,13.5l16.8,7.5l7.8-1.8C532.2,309.2,550.4,299.2,541.7,284.5z"/>
	<path class="st5" d="M506.7,302.5c0,0,29.5,16.8,32.5-22.5l7.5,2.5l-7.5,26.5l-12.8,9.3C526.4,318.2,508.7,310,506.7,302.5z"/>
	<path class="st10" d="M507.7,303.5c0,0,29.5,16.8,32.5-22.5l7.5,2.5l-7.5,26.5l-12.8,9.3C527.4,319.2,509.7,311,507.7,303.5z"/>
	<path class="st15" d="M533.7,104.6c0.3-3.5,1.8-6.8,2.5-10.3c0.7-3.3,0.8-6.8,0.3-10.2c-0.3-2.4-1.2-4.8-2.6-6.8
		c-1-1.3-4-4-5.8-2.8c-1,0.7-1.3,4.8-1.7,6c-1.4,4-3.3,7.7-5.6,11.3c14.8,20.5,10.3,49.1-10.2,63.9c-7.8,5.6-17.2,8.7-26.8,8.7
		c-1.1,0-2.2-0.1-3.2-0.1c-1,1.7-1.9,3.5-2.8,5.3c-1.1,1.8-1.8,3.8-2.2,5.8c-0.1,2,0.2,3.9,0.9,5.8c1.9,6.1,4.4,12,7.7,17.5
		c1.1,1.7,2,3.5,2.8,5.5c0.6,1.9,0.7,3.8,1.4,5.6c1.7,4,6,6,10,7.7c2.4,1,4.9,2,7.5,1.8c1,0.1,1.8-0.6,1.9-1.6c0-0.1,0-0.1,0-0.2
		c0.3-2.1-0.5-4.3-2-5.8c3.4,1.1,7,1.5,10.5,1.3c0.9,0.2,1.8-0.4,2-1.3c0.1-0.4,0-0.8-0.2-1.2c-0.9-3.8-2.3-7.4-4.2-10.8
		c-1.8-3.4-4.1-7.3-2.5-10.7c1-2,3-3.1,4.8-4.3c6.2-4,11.6-10.5,11.1-17.9c-0.3-4-2.3-7.8-2.4-11.8c-0.3-9.8,10.3-16.9,11.9-26.6
		C538,120.5,533,112.6,533.7,104.6z"/>
	<g class="st14">
		<path d="M402.9,197.6c-0.1-7.3-7.6-12.4-9.6-19.5c-0.3-1.1-0.5-2.3-0.6-3.4c-0.2,2.5,0,5,0.6,7.4c1.8,6.4,8.3,11.3,9.4,17.7
			C402.8,199,402.9,198.3,402.9,197.6z"/>
		<path d="M434.1,221.5c-3.9,0.1-7.7-3.6-11.2-1.8c-1,0.5-1.8,1.4-2.8,1.9c-1.5,0.5-3.1,0.6-4.5,0.1c-6.2-1.1-13.8-3.3-15.1-9.5
			c-0.3,1.3-0.3,2.6,0,3.9c1.3,6.2,8.9,8.4,15.1,9.5c1.5,0.4,3.1,0.4,4.5-0.1c1-0.5,1.8-1.4,2.8-1.9c3.5-1.7,7.3,1.9,11.2,1.8
			c4.9-0.1,7.6-5.8,7.7-10.7c0-1,0-2-0.1-3C441.3,216.4,438.6,221.4,434.1,221.5z"/>
		<path d="M471.1,168.8c-1.9,6.9-7.8,11.9-14,15.4c-5.6,3.2-12.3,6-14.6,12c-0.9,2.6-1.2,5.3-0.9,8.1c0.1-1.4,0.4-2.7,0.9-4.1
			c2.3-6,9-8.9,14.6-12c6.2-3.5,12.2-8.5,14-15.4c0.6-2.6,0.8-5.3,0.6-8C471.6,166.2,471.4,167.5,471.1,168.8z"/>
		<path d="M525.8,97.7c-2.4-0.2-4.9-0.7-7,0.4c-1.8,1-2.6,3-4,4.4c-3.5,3.6-9.4,3.2-14.4,2.8h-0.3c-17.2-1.3-31.4,13-30.5,30.2
			c0,0.1,0,0.3,0,0.4c1-15.7,14.5-27.6,30.2-26.6c0.1,0,0.1,0,0.2,0h0.3c5,0.4,10.9,0.9,14.4-2.8c1.4-1.4,2.3-3.4,4-4.4
			c2-1.2,4.5-0.6,7-0.4c1.9,4.8,3,9.9,3.3,15c0-0.6,0-1.3,0-2C529.1,108.8,528,103.1,525.8,97.7z"/>
		<path d="M399.6,128.8c0.3-4.3-0.3-8.7-1.8-12.8c-1.6-4.1-4.3-8.1-5-12.3c-1.1,5.6,2.9,10.9,5,16.3
			C398.8,122.8,399.5,125.8,399.6,128.8z"/>
		<path d="M536.3,86.5c-0.1,1.3-0.3,2.6-0.6,3.8c-0.8,3.4-2.2,6.8-2.5,10.3c-0.1,1.3-0.1,2.5,0,3.8c0.4-3.4,1.8-6.7,2.5-10
			C536.3,91.8,536.5,89.1,536.3,86.5z"/>
		<path d="M536.2,124.4c-1.6,9.7-12.2,16.7-11.9,26.6c0,0.5,0.1,1.1,0.1,1.6c1.3-8.6,10.3-15.3,11.7-24.2c0.2-1.6,0.3-3.2,0.1-4.9
			C536.3,123.9,536.3,124.2,536.2,124.4z"/>
		<path d="M538,68.9c-0.9,2.1-2.2,4.2-3.6,6c0.4,0.8,0.7,1.6,1,2.5c1.1-1.4,1.9-2.9,2.6-4.6c0.6-1.9,0.8-3.9,0.5-5.8
			C538.4,67.7,538.2,68.3,538,68.9z"/>
		<path d="M526.6,165.8c-0.9,6.1-5.7,11.4-11,14.9c-1.8,1.2-3.8,2.4-4.8,4.3c-0.7,1.5-0.8,3.1-0.3,4.7c0.1-0.2,0.2-0.5,0.3-0.7
			c1-2,3-3.1,4.8-4.3c6.2-4,11.6-10.5,11.1-17.9C526.7,166.5,526.7,166.1,526.6,165.8z"/>
		<path d="M506.6,214.8c-0.4,0.3-0.8,0.4-1.3,0.4c-2.6,0.2-5.1-0.8-7.5-1.8c-4-1.7-8.4-3.7-10-7.7c-0.7-1.8-0.8-3.8-1.4-5.6
			c-0.7-1.9-1.6-3.8-2.8-5.5c-3.2-5.5-5.8-11.4-7.7-17.5c-0.3-0.9-0.5-1.9-0.7-2.8c-0.1,0.3-0.1,0.7-0.2,1c-0.1,2,0.2,3.9,0.9,5.8
			c1.9,6.1,4.4,12,7.7,17.5c1.1,1.7,2,3.5,2.8,5.5c0.6,1.9,0.7,3.8,1.4,5.6c1.7,4,6,6,10,7.7c2.4,1,4.9,2,7.5,1.8
			c1,0.1,1.8-0.6,1.9-1.6c0-0.1,0-0.1,0-0.2c0.1-1,0-2-0.3-3C506.8,214.6,506.7,214.7,506.6,214.8z"/>
		<path d="M517,208.7c-0.4,0.2-0.9,0.3-1.3,0.3c-3.5,0.2-7.1-0.2-10.5-1.3c1.2,1.2,2,2.8,2,4.6c2.8,0.7,5.6,0.9,8.5,0.7
			c0.9,0.2,1.8-0.4,2-1.3c0.1-0.4,0-0.8-0.2-1.2C517.4,209.9,517.2,209.3,517,208.7z"/>
	</g>
	<path class="st5" d="M377.4,230.7c0,0-1,20.5,2,22S377.4,230.7,377.4,230.7z"/>
	<path class="st5" d="M434.2,284.7c1,0,5,2,5.5,4.3S434.2,284.7,434.2,284.7z"/>
	<path class="st5" d="M431.7,288c1,0,5,2,5.5,4.3S431.7,288,431.7,288z"/>
	<path class="st5" d="M440.9,297c1,0,5,2,5.5,4.3S440.9,297,440.9,297z"/>
	<path class="st5" d="M428.4,297.4c0,0-13.6,13.6-14.4,16.5s-26.5,3-26.5,3l-1.8-14c0,0-0.1-0.4-0.2-0.9c7.1-1.8,30.1-10.3,43.8-7.3
		C429.5,295.6,429.2,296.7,428.4,297.4z"/>
	<path class="st8" d="M366.6,314.6c0,0,13.1-11.6,17.1-11.3s52.8-20.5,56,2.8s-62.3,24.5-62.3,24.5l-10,3.8
		C367.4,334.2,359.1,316.1,366.6,314.6z"/>
	<path class="st10" d="M362.8,316.2c0,0,6-8.3,7.8,1.8s4.6,22.7,4.6,22.7l-13.4-6.7L362.8,316.2z"/>
	<ellipse class="st0" cx="918.4" cy="664.5" rx="44.8" ry="6.9"/>
	<ellipse class="st0" cx="792" cy="788.5" rx="70" ry="10.7"/>
	<ellipse class="st0" cx="982" cy="826.5" rx="92.6" ry="14.2"/>
	<ellipse class="st0" cx="70" cy="678.5" rx="70" ry="10.7"/>
	<path class="st4" d="M883.1,598.6c0,0-6.3,29.5,21.8,33l1.8-3.3C906.7,628.3,884.8,607.8,883.1,598.6z"/>
	<path class="st4" d="M915.6,628.1l-6.5,1.4l-0.7,0.2c0,0-17.5-14.2-17.3-45.9c2.3,4.7,5.1,9.1,8.3,13.2
		C906.4,606.1,914.3,618.4,915.6,628.1z"/>
	<path class="st4" d="M917.8,631.1c-1,0.7-2.3,0.9-3.5,0.5c-16.8-3.9-11.1-58.8-11.1-58.8c0.9,0.4,2,7.4,5.8,16.4
		C915.8,605,923.3,627.1,917.8,631.1z"/>
	<path class="st4" d="M955.2,598.6c0,0,1.1,29.5-27.1,33l-1.8-3.3C926.3,628.3,953.4,607.8,955.2,598.6z"/>
	<path class="st4" d="M947.1,583.7c0.2,31.7-22.5,45.9-22.5,45.9l-0.7-0.2l-6.5-1.4c1.3-9.7,9.2-22,16.1-31.1
		C937.4,591.9,942,587.5,947.1,583.7z"/>
	<path class="st4" d="M923.8,628.2c-1,1.2-2.3,2.2-3.8,2.9l0,0c-0.4,0.2-0.9,0.4-1.4,0.5c-4.2,1-5.6-2-5.3-7.1
		c0.4-9,6.1-24.7,11.2-36.4c3.7-8.4,9.7-14.8,10.6-15.3C935.1,572.8,934.8,615.5,923.8,628.2z"/>
	<path class="st4" d="M919.1,553.6c0,0-18.8,66.6-2.6,76.7S923.3,559.5,919.1,553.6z"/>
	<path class="st5" d="M883.1,598.6c0,0-6.3,29.5,21.8,33l1.8-3.3C906.7,628.3,884.8,607.8,883.1,598.6z"/>
	<path class="st5" d="M915.6,628.1l-6.5,1.4l-0.7,0.2c0,0-17.5-14.2-17.3-45.9c2.3,4.7,5.1,9.1,8.3,13.2
		C906.4,606.1,914.3,618.4,915.6,628.1z"/>
	<path class="st5" d="M917.8,631.1c-1,0.7-2.3,0.9-3.5,0.5c-16.8-3.9-11.1-58.8-11.1-58.8c0.9,0.4,2,7.4,5.8,16.4
		C915.8,605,923.3,627.1,917.8,631.1z"/>
	<path class="st5" d="M955.2,598.6c0,0,1.1,29.5-27.1,33l-1.8-3.3C926.3,628.3,953.4,607.8,955.2,598.6z"/>
	<path class="st5" d="M947.1,583.7c0.2,31.7-22.5,45.9-22.5,45.9l-0.7-0.2l-6.5-1.4c1.3-9.7,9.2-22,16.1-31.1
		C937.4,591.9,942,587.5,947.1,583.7z"/>
	<path class="st5" d="M923.8,628.2c-1,1.2-2.3,2.2-3.8,2.9l0,0c-0.4,0.2-0.9,0.4-1.4,0.5c-4.2,1-5.6-2-5.3-7.1
		c0.4-9,6.1-24.7,11.2-36.4c3.7-8.4,9.7-14.8,10.6-15.3C935.1,572.8,934.8,615.5,923.8,628.2z"/>
	<path class="st5" d="M919.1,553.6c0,0-18.8,66.6-2.6,76.7S923.3,559.5,919.1,553.6z"/>
	<path class="st4" d="M883.1,598.6c0,0-3.7,29.5,24.5,33l1.8-3.3C909.3,628.3,884.8,607.8,883.1,598.6z"/>
	<path class="st4" d="M918.3,628.1l-6.5,1.4l-0.7,0.2c0,0-20.1-14.2-19.9-45.9c0,0,5.2,5.5,11,13.2
		C909.1,606.1,916.9,618.4,918.3,628.1z"/>
	<path class="st5" d="M918.3,628.1l-6.5,1.4c-6.2-5.5-8.7-19.7-9.6-32.5C909.1,606.1,916.9,618.4,918.3,628.1z"/>
	<path class="st4" d="M920.5,631.1c-1,0.7-2.3,0.9-3.5,0.5c-16.8-3.9-13.8-58.8-13.8-58.8c0.9,0.4,4.6,7.4,8.4,16.4
		C918.4,605,925.9,627.1,920.5,631.1z"/>
	<path class="st4" d="M955.2,598.6c0,0,3.7,29.5-24.5,33l-1.7-3.3C929,628.3,953.4,607.8,955.2,598.6z"/>
	<path class="st4" d="M947.1,583.7c0.2,31.7-19.9,45.9-19.9,45.9l-0.7-0.2l-6.5-1.4c1.3-9.7,9.2-22,16.1-31.1
		C941.9,589.2,947.1,583.7,947.1,583.7z"/>
	<path class="st5" d="M936.1,596.9c-0.8,12-3,25.1-8.3,31.3c-0.4,0.4-0.8,0.8-1.2,1.2l-6.5-1.4C921.3,618.4,929.2,606.1,936.1,596.9
		z"/>
	<path class="st4" d="M926.4,628.2c-1,1.2-2.3,2.2-3.8,2.9l0,0c-0.4,0.2-0.9,0.4-1.4,0.5c-4.1,1-5.6-2-5.3-7.1
		c0.4-9,6.1-24.7,11.2-36.4c3.7-8.4,7-14.8,7.9-15.3C935.1,572.8,937.4,615.5,926.4,628.2z"/>
	<path class="st5" d="M920.5,631.1c-1,0-1.9-0.3-2.7-0.8c-7.9-4.9-8.1-23.4-6.2-41C918.4,605,925.9,627.1,920.5,631.1z"/>
	<path class="st5" d="M926.4,628.2c-0.9,2-2.1,3-3.8,2.9l0,0c-0.8-0.1-1.6-0.4-2.3-0.8c-2.1-1.4-3.6-3.4-4.5-5.8
		c0.4-9,6.1-24.7,11.2-36.4C928.9,604.4,929.5,621.6,926.4,628.2z"/>
	<path class="st4" d="M919.1,553.6c0,0-16.2,66.6,0,76.7S923.3,559.5,919.1,553.6z"/>
	<polygon class="st16" points="950.1,627 882.8,627 882.8,638.1 893.1,638.1 893.4,639.4 897.5,661.1 936.6,661.1 940.7,639.4 
		941,638.1 950.1,638.1 	"/>
	<polygon class="st5" points="950.1,627 882.8,627 882.8,638.1 893.1,638.1 893.4,639.4 897.5,661.1 936.6,661.1 940.7,639.4 
		941,638.1 950.1,638.1 	"/>
	<polygon class="st16" points="944.5,633.5 943.3,639.4 939.2,661.1 900.1,661.1 896,639.4 894.9,633.5 	"/>
	<polygon class="st5" points="944.5,633.5 943.3,639.4 896,639.4 894.9,633.5 	"/>
	<rect x="885.5" y="627" class="st16" width="67.3" height="11.1"/>
	<path class="st4" d="M109.2,561.2c-1,1.3-1.7,2.8-2.3,4.3c-0.1,0.4-0.3,0.8-0.4,1.2c-0.3-0.1-0.5-0.2-0.8-0.3
		c-1.2-0.3-2.4-0.4-3.6-0.3c0-0.5,0.1-1,0.1-1.5c0.1-5.3-0.5-12.6-5.5-9.5c-4.8,3-1.4,8,1.7,11.2c0.3,0.3,0.5,0.5,0.8,0.8
		c-2.8,2-3.4,6.7-3.9,11.6s-4.6,10.3-7.4,13.3c-0.3,0.3-0.5,0.6-0.8,0.8c-2.2-1.8-5.2-2.6-8-2.1c-0.1-0.4-0.2-0.9-0.4-1.4
		c-2.3-8.1-6.9-22.1-12.9-25.1c0.3-0.3,0.5-0.6,0.8-1c2.5-3.3,5.4-8.2,1.2-9.5s-4.6,4.3-4.3,8.4c0,0.5,0.1,1,0.1,1.5
		c-1.7,0.1-3.3,0.8-4.4,2.1l-0.7-0.8c-3.4-4-9.6-10.4-11.5-5.5c-1.8,4.5,3.7,10.3,7.6,13.7l0.2,0.2c-2.6,10.5,8.7,19.1,14.8,22.8
		l0.8,0.5c-8.4,9.9-13.6,28.5-13.6,28.5l23.5,4.2c0,0,15.6-13.5,13.6-26.1h0.2c15.6-3.1,19.1-19.8,16.7-29.6l0.3-0.1
		c2.8-1.2,5.3-3,7.2-5.5C122.8,562,113.6,555.2,109.2,561.2z"/>
	<path class="st5" d="M109.2,561.2c-1,1.3-1.7,2.8-2.3,4.3c-0.1,0.4-0.3,0.8-0.4,1.2c-0.3-0.1-0.5-0.2-0.8-0.3
		c-1.2-0.3-2.4-0.4-3.6-0.3c0-0.5,0.1-1,0.1-1.5c0.1-5.3-0.5-12.6-5.5-9.5c-4.8,3-1.4,8,1.7,11.2c0.3,0.3,0.5,0.5,0.8,0.8
		c-2.8,2-3.4,6.7-3.9,11.6s-4.6,10.3-7.4,13.3c-0.3,0.3-0.5,0.6-0.8,0.8c-2.2-1.8-5.2-2.6-8-2.1c-0.1-0.4-0.2-0.9-0.4-1.4
		c-2.3-8.1-6.9-22.1-12.9-25.1c0.3-0.3,0.5-0.6,0.8-1c2.5-3.3,5.4-8.2,1.2-9.5s-4.6,4.3-4.3,8.4c0,0.5,0.1,1,0.1,1.5
		c-1.7,0.1-3.3,0.8-4.4,2.1l-0.7-0.8c-3.4-4-9.6-10.4-11.5-5.5c-1.8,4.5,3.7,10.3,7.6,13.7l0.2,0.2c-2.6,10.5,8.7,19.1,14.8,22.8
		l0.8,0.5c-8.4,9.9-13.6,28.5-13.6,28.5l23.5,4.2c0,0,15.6-13.5,13.6-26.1h0.2c15.6-3.1,19.1-19.8,16.7-29.6l0.3-0.1
		c2.8-1.2,5.3-3,7.2-5.5C122.8,562,113.6,555.2,109.2,561.2z"/>
	<path class="st4" d="M62.3,567.9l-2.8,8c0,0-1.5-1.1-3.5-2.8c-3.9-3.4-9.3-9.2-7.6-13.7c1.9-4.8,8.1,1.5,11.5,5.5
		C61.4,566.7,62.3,567.9,62.3,567.9z"/>
	<path class="st4" d="M68.1,563.4c-0.8,1.1-1.7,2.1-2.7,3.2c-0.2-1.4-0.4-2.8-0.5-4.2c-0.2-4.1,0.2-9.6,4.3-8.4S70.7,560,68.1,563.4
		z"/>
	<path class="st4" d="M103.6,564.6c-0.1,2.7-0.3,4.8-0.3,4.8c-1.2-0.9-2.4-2-3.4-3.1c-3.1-3.2-6.6-8.2-1.7-11.2
		C103.1,552,103.8,559.4,103.6,564.6z"/>
	<path class="st4" d="M119.9,568.1c-1.9,2.4-4.4,4.3-7.2,5.5c-0.8,0.3-1.6,0.6-2.4,0.9l-3.2-4.5c0.3-1.5,0.8-3,1.3-4.4
		c0.6-1.5,1.3-3,2.3-4.3C115.1,555.2,124.2,562,119.9,568.1z"/>
	<path class="st5" d="M60,565.1c1.4,1.6,2.3,2.8,2.3,2.8l-2.8,8c0,0-1.5-1.1-3.5-2.8c0.4-2.6,1.5-5,3.1-7.1
		C59.5,565.8,59.8,565.4,60,565.1z"/>
	<path class="st5" d="M68.1,563.4c-0.8,1.1-1.7,2.1-2.7,3.2c-0.2-1.4-0.4-2.8-0.5-4.2C66.1,562.3,67.2,562.7,68.1,563.4z"/>
	<path class="st4" d="M81.7,595.3l-6.9,3c0,0-1.5-0.7-3.6-2.1c-7.2-4.4-21.6-15.5-12-28.7s17.8,10.4,21,21.9
		C81.1,592.9,81.7,595.3,81.7,595.3z"/>
	<path class="st5" d="M99.8,566.3c1-1,2.3-1.6,3.8-1.7c-0.1,2.7-0.3,4.8-0.3,4.8C102,568.4,100.9,567.4,99.8,566.3z"/>
	<path class="st5" d="M112.6,573.5c-0.8,0.3-1.6,0.6-2.4,0.9l-3.2-4.5c0.3-1.5,0.8-3,1.3-4.4C110.4,566.7,111.9,569.7,112.6,573.5z"
		/>
	<path class="st4" d="M95.7,603.3l-1.1,0.2c-22.9,3.5-7.6-8.9-7.6-8.9s1-1,2.4-2.5c2.8-3.1,6.9-8.4,7.4-13.3
		c0.7-7.4,1.6-14.4,10.3-12.3C115.7,568.4,117.4,598.9,95.7,603.3z"/>
	<rect x="51.4" y="660.4" class="st17" width="43.8" height="11.5"/>
	<rect x="44.5" y="622.9" class="st17" width="57.2" height="40.2"/>
	<rect x="51.4" y="660.4" class="st5" width="43.8" height="11.5"/>
	<rect x="44.5" y="622.9" class="st5" width="57.2" height="40.2"/>
	<rect x="54.3" y="660.4" class="st17" width="43.8" height="11.5"/>
	<path class="st5" d="M80.2,589.5c1,3.4,1.5,5.8,1.5,5.8l-6.9,3c0,0-1.5-0.7-3.6-2.1C73.9,592.9,76.9,590.3,80.2,589.5z"/>
	<path class="st5" d="M95.7,603.3l-1.1,0.2c-22.9,3.5-7.6-8.9-7.6-8.9s1-1,2.4-2.5C93.7,595.5,95.4,599.4,95.7,603.3z"/>
	<path class="st4" d="M58.4,625.2c0,0,12.8-46,30.9-31.8s-7.3,36-7.3,36L58.4,625.2z"/>
	<circle class="st5" cx="64.8" cy="574.8" r="1.4"/>
	<circle class="st5" cx="64.7" cy="581.5" r="1.4"/>
	<circle class="st5" cx="106.5" cy="576.1" r="1.4"/>
	<circle class="st5" cx="72.9" cy="610.5" r="1.4"/>
	<circle class="st5" cx="103.5" cy="587.3" r="1.4"/>
	<circle class="st5" cx="88.6" cy="602.2" r="1.4"/>
	<circle class="st5" cx="69.8" cy="577.7" r="1.4"/>
	<circle class="st5" cx="102.5" cy="580.4" r="1.4"/>
	<circle class="st5" cx="97.6" cy="591.6" r="1.4"/>
	<circle class="st5" cx="82.5" cy="609.5" r="1.4"/>
	<circle class="st5" cx="79.4" cy="602.4" r="1.4"/>
	<circle class="st5" cx="71.9" cy="586.4" r="1.4"/>
	<rect x="54.3" y="660.4" class="st5" width="43.8" height="4.2"/>
	<rect x="47.3" y="622.9" class="st17" width="57.2" height="40.2"/>
	<circle class="st5" cx="84.4" cy="616" r="1.4"/>
	<circle class="st5" cx="75.8" cy="617.8" r="1.4"/>
</g>
</svg>
