<svg 
 xmlns="http://www.w3.org/2000/svg"
 xmlns:xlink="http://www.w3.org/1999/xlink"
 width="17px" height="17px">
<path fill-rule="evenodd"  fill="rgb(167, 169, 172)"
 d="M16.736,16.751 C16.570,16.917 16.353,17.000 16.135,17.000 C15.918,17.000 15.701,16.917 15.535,16.751 L12.410,13.621 C11.102,14.669 9.448,15.300 7.646,15.300 C3.434,15.300 0.007,11.868 0.007,7.650 C0.007,3.432 3.434,-0.000 7.646,-0.000 C11.860,-0.000 15.287,3.432 15.287,7.650 C15.287,9.453 14.657,11.110 13.610,12.419 L16.736,15.549 C17.067,15.881 17.067,16.419 16.736,16.751 ZM7.646,1.700 C4.370,1.700 1.704,4.369 1.704,7.650 C1.704,10.930 4.370,13.600 7.646,13.600 C9.279,13.600 10.759,12.936 11.834,11.865 C11.838,11.861 11.839,11.856 11.843,11.852 C11.847,11.848 11.852,11.847 11.856,11.843 C12.926,10.766 13.589,9.285 13.589,7.650 C13.589,4.369 10.923,1.700 7.646,1.700 Z"/>
</svg>