<?xml version="1.0" encoding="utf-8"?>
<!-- Generator: Adobe Illustrator 22.0.1, SVG Export Plug-In . SVG Version: 6.00 Build 0)  -->
<svg version="1.1" id="Layer_1" xmlns="http://www.w3.org/2000/svg" xmlns:xlink="http://www.w3.org/1999/xlink" x="0px" y="0px"
	 viewBox="0 0 16 18" style="enable-background:new 0 0 16 18;" xml:space="preserve">
<style type="text/css">
	.st0{fill:#CECECE;}
</style>
<g>
	<path class="st0" d="M10.7,10.3c0.8,0,1.4,0.2,2.1,0.6c0.6,0.4,1.2,0.9,1.5,1.5c0.4,0.6,0.6,1.3,0.6,2.1v1.3c0,0.4-0.1,0.8-0.4,1.1
		c-0.3,0.3-0.6,0.4-1.1,0.4h-11c-0.4,0-0.8-0.1-1.1-0.4c-0.3-0.3-0.4-0.6-0.4-1.1v-1.3c0-0.8,0.2-1.4,0.6-2.1
		c0.4-0.6,0.9-1.2,1.5-1.5s1.3-0.6,2.1-0.6h0.5c0.7,0.3,1.5,0.5,2.3,0.5c0.8,0,1.6-0.2,2.3-0.5H10.7z M7.8,9.3c-0.7,0-1.4-0.2-2-0.5
		C5.2,8.4,4.7,7.9,4.4,7.3S3.8,6,3.8,5.3s0.2-1.4,0.5-2s0.8-1.1,1.5-1.5c0.6-0.4,1.3-0.5,2-0.5c0.7,0,1.4,0.2,2,0.5
		c0.6,0.4,1.1,0.8,1.5,1.5c0.4,0.6,0.5,1.3,0.5,2s-0.2,1.4-0.5,2C11,7.9,10.5,8.4,9.9,8.7C9.2,9.1,8.6,9.3,7.8,9.3z"/>
</g>
</svg>
